<svg width="14" height="15" viewBox="0 0 14 15" fill="none" xmlns="http://www.w3.org/2000/svg">
<g clip-path="url(#clip0_28_1400)">
<path d="M7.06289 4.78994C5.32383 4.78994 3.92109 6.19268 3.92109 7.93174C3.92109 9.6708 5.32383 11.0735 7.06289 11.0735C8.80195 11.0735 10.2047 9.6708 10.2047 7.93174C10.2047 6.19268 8.80195 4.78994 7.06289 4.78994ZM7.06289 9.97432C5.93906 9.97432 5.02031 9.0583 5.02031 7.93174C5.02031 6.80518 5.93633 5.88916 7.06289 5.88916C8.18945 5.88916 9.10547 6.80518 9.10547 7.93174C9.10547 9.0583 8.18672 9.97432 7.06289 9.97432ZM11.066 4.66143C11.066 5.06885 10.7379 5.39424 10.3332 5.39424C9.92578 5.39424 9.60039 5.06611 9.60039 4.66143C9.60039 4.25674 9.92852 3.92861 10.3332 3.92861C10.7379 3.92861 11.066 4.25674 11.066 4.66143ZM13.1469 5.40518C13.1004 4.42354 12.8762 3.554 12.157 2.8376C11.4406 2.12119 10.5711 1.89697 9.58945 1.84775C8.57773 1.79033 5.54531 1.79033 4.53359 1.84775C3.55469 1.89424 2.68516 2.11846 1.96602 2.83486C1.24688 3.55127 1.02539 4.4208 0.976172 5.40244C0.91875 6.41416 0.91875 9.44658 0.976172 10.4583C1.02266 11.4399 1.24688 12.3095 1.96602 13.0259C2.68516 13.7423 3.55195 13.9665 4.53359 14.0157C5.54531 14.0731 8.57773 14.0731 9.58945 14.0157C10.5711 13.9692 11.4406 13.745 12.157 13.0259C12.8734 12.3095 13.0977 11.4399 13.1469 10.4583C13.2043 9.44658 13.2043 6.41689 13.1469 5.40518ZM11.8398 11.5438C11.6266 12.0798 11.2137 12.4927 10.675 12.7087C9.86836 13.0286 7.9543 12.9548 7.06289 12.9548C6.17148 12.9548 4.25469 13.0259 3.45078 12.7087C2.91484 12.4954 2.50195 12.0825 2.28594 11.5438C1.96602 10.7372 2.03984 8.82314 2.03984 7.93174C2.03984 7.04033 1.96875 5.12354 2.28594 4.31963C2.49922 3.78369 2.91211 3.3708 3.45078 3.15479C4.25742 2.83486 6.17148 2.90869 7.06289 2.90869C7.9543 2.90869 9.87109 2.8376 10.675 3.15479C11.2109 3.36807 11.6238 3.78096 11.8398 4.31963C12.1598 5.12627 12.0859 7.04033 12.0859 7.93174C12.0859 8.82314 12.1598 10.7399 11.8398 11.5438Z" fill="#263238"/>
</g>
<defs>
<clipPath id="clip0_28_1400">
<rect width="12.25" height="14" fill="white" transform="translate(0.935059 0.93457)"/>
</clipPath>
</defs>
</svg>
