<svg width="13" height="15" viewBox="0 0 13 15" fill="none" xmlns="http://www.w3.org/2000/svg">
<g clip-path="url(#clip0_28_1394)">
<path d="M2.92709 13.1848H0.387402V5.00627H2.92709V13.1848ZM1.65588 3.89064C0.84377 3.89064 0.185059 3.21799 0.185059 2.40588C0.185059 2.01579 0.34002 1.64168 0.615852 1.36585C0.891684 1.09002 1.26579 0.935059 1.65588 0.935059C2.04596 0.935059 2.42007 1.09002 2.69591 1.36585C2.97174 1.64168 3.1267 2.01579 3.1267 2.40588C3.1267 3.21799 2.46771 3.89064 1.65588 3.89064ZM12.4323 13.1848H9.89811V9.20353C9.89811 8.25471 9.87896 7.03791 8.57768 7.03791C7.25725 7.03791 7.0549 8.06877 7.0549 9.13517V13.1848H4.51795V5.00627H6.95373V6.12189H6.98928C7.32834 5.47932 8.15658 4.80119 9.39225 4.80119C11.9626 4.80119 12.4351 6.49377 12.4351 8.69221V13.1848H12.4323Z" fill="#263238"/>
</g>
<defs>
<clipPath id="clip0_28_1394">
<rect width="12.25" height="14" fill="white" transform="translate(0.185059 0.93457)"/>
</clipPath>
</defs>
</svg>
