<svg width="14" height="15" viewBox="0 0 14 15" fill="none" xmlns="http://www.w3.org/2000/svg">
<g clip-path="url(#clip0_28_1398)">
<path d="M13.9988 7.93457C13.9988 11.6807 10.9636 14.7158 7.21753 14.7158C6.51753 14.7158 5.84487 14.6092 5.2105 14.4123C5.48667 13.9611 5.89956 13.2229 6.05269 12.635C6.13472 12.3178 6.47378 11.0217 6.47378 11.0217C6.69526 11.4428 7.34058 11.801 8.0269 11.801C10.0722 11.801 11.546 9.91973 11.546 7.58184C11.546 5.34238 9.71675 3.66621 7.36519 3.66621C4.4394 3.66621 2.88354 5.62949 2.88354 7.77051C2.88354 8.76582 3.41401 10.0045 4.25894 10.3982C4.38745 10.4584 4.45581 10.4311 4.48589 10.308C4.50776 10.215 4.62261 9.75293 4.67456 9.53965C4.69097 9.47129 4.68276 9.41113 4.62808 9.34551C4.3519 9.00371 4.12769 8.38027 4.12769 7.79785C4.12769 6.30215 5.25972 4.85566 7.19019 4.85566C8.85542 4.85566 10.023 5.99043 10.023 7.61465C10.023 9.44941 9.09605 10.7209 7.89019 10.7209C7.22573 10.7209 6.72534 10.1713 6.88667 9.4959C7.07808 8.68926 7.44722 7.81973 7.44722 7.2373C7.44722 6.71777 7.16831 6.28301 6.58862 6.28301C5.90776 6.28301 5.36089 6.98574 5.36089 7.9291C5.36089 8.53066 5.56323 8.93535 5.56323 8.93535C5.56323 8.93535 4.89331 11.7736 4.77026 12.3041C4.63354 12.8893 4.68823 13.715 4.74565 14.251C2.22456 13.2639 0.436279 10.8084 0.436279 7.93457C0.436279 4.18848 3.47144 1.15332 7.21753 1.15332C10.9636 1.15332 13.9988 4.18848 13.9988 7.93457Z" fill="#263238"/>
</g>
<defs>
<clipPath id="clip0_28_1398">
<rect width="13.565" height="14" fill="white" transform="translate(0.435059 0.93457)"/>
</clipPath>
</defs>
</svg>
